<?xml version="1.0" encoding="utf-8"?>
<!-- Generator: Adobe Illustrator 15.0.0, SVG Export Plug-In . SVG Version: 6.00 Build 0)  -->
<!DOCTYPE svg PUBLIC "-//W3C//DTD SVG 1.1//EN" "http://www.w3.org/Graphics/SVG/1.1/DTD/svg11.dtd">
<svg version="1.1" id="Layer_4" xmlns="http://www.w3.org/2000/svg" xmlns:xlink="http://www.w3.org/1999/xlink" x="0px" y="0px"
	 width="365.914px" height="100.91px" viewBox="0 0 365.914 100.91" style="enable-background:new 0 0 365.914 100.91;"
	 xml:space="preserve">
<g>
	<polygon style="fill:#FFF200;" points="84.385,75.785 42.348,100.91 42.348,50.454 	"/>
	<polygon style="fill:#72BF44;" points="84.385,25.218 42.348,50.454 42.348,0 	"/>
	<polygon style="fill:#00A651;" points="0,25.353 42.348,50.454 42.348,0 	"/>
	<polygon style="fill:#CBDB2A;" points="42.348,50.469 84.385,75.785 84.385,25.218 	"/>
</g>
<g>
	<path style="fill:#004B1C;" d="M313.398,38.462v-9.697h-9.538V71.08h9.926V53.894c0-2.344,0.191-3.797,0.572-5.813
		c1.302-6.877,5.961-10.508,10.867-10.869c1.767-0.133,2.637,0,2.637,0v-8.059c0,0-0.82-0.389-1.763-0.389
		C320.003,28.765,315.196,32.753,313.398,38.462z"/>
	<path style="fill:#004B1C;" d="M138.65,28.765l-10.166,32.162c-0.076,0-10.117-32.162-10.117-32.162h-10.538l14.88,42.266h11.729
		l14.771-42.266H138.65z"/>
	<path style="fill:#004B1C;" d="M170.103,29.026c-9.798,0.108-19.894,8.45-19.894,20.724c0,11.336,8.328,21.281,21.539,21.281
		c9.93,0,15.604-7.299,15.604-7.299l-6.717-6.262c0,0-3.183,4.389-8.679,4.389c-6.554,0-11.645-4.01-12.298-10.232h30.33
		c0,0,0.255-4.707-1.376-9.242C185.406,33.453,179.377,28.923,170.103,29.026z M160.687,44.826c0.214-2.67,4.317-6.621,9.416-6.771
		c5.332-0.157,8.699,2.631,9.587,6.771H160.687z"/>
	<path style="fill:#004B1C;" d="M213.778,61.859c-6.726-0.23-11.904-5.264-11.904-11.989c0-6.802,5.593-11.819,12.064-11.819
		c5.145,0,8.259,3.488,8.259,3.488l6.458-6.463c0,0-5.507-6.197-14.291-6.197c-13.216,0-21.657,9.536-21.657,20.871
		c0,11.57,8.258,21.285,21.658,21.281c8.275-0.002,14.352-6.139,14.352-6.139l-6.52-6.52
		C222.197,58.373,218.5,62.021,213.778,61.859z"/>
	<path style="fill:#004B1C;" d="M246.507,17.925h-9.692v10.953h-5.395v7.896h5.158v19.48c-0.074,12.516,10.335,14.775,16.589,14.789
		c1.876,0.004,3.034-0.014,3.034-0.014v-8.678c0,0-0.704,0.156-1.797,0.156c-2.736,0-7.897-0.938-7.897-7.504v-18.23h9.694v-7.896
		h-9.694V17.925z"/>
	<path style="fill:#004B1C;" d="M343.935,62.689l21.891-28.527v-5.396h-35.26v8.447h21.541L330.565,65.74v5.314h35.349
		c0,0,0-1.531,0-4.154s0-4.211,0-4.211H343.935z"/>
	<path style="fill:#004B1C;" d="M280.035,28.828c-11.669,0-21.131,9.457-21.131,21.126s9.462,21.126,21.131,21.126
		s21.122-9.457,21.122-21.126S291.704,28.828,280.035,28.828z M280.035,61.859c-6.578,0-11.909-5.332-11.909-11.905
		s5.331-11.903,11.909-11.903c6.571,0,11.903,5.33,11.903,11.903S286.606,61.859,280.035,61.859z"/>
</g>
</svg>
